<mxfile host="app.diagrams.net" modified="2021-12-02T03:05:55.966Z" agent="5.0 (Windows NT 10.0; Win64; x64) AppleWebKit/537.36 (KHTML, like Gecko) Chrome/96.0.4664.45 Safari/537.36" etag="Q7x4XxxPtWBDEQfGHAeh" version="15.8.8" type="github">
  <diagram id="fIh9vw8JAD3_BQdfP7Bt" name="Page-1">
    <mxGraphModel dx="1038" dy="588" grid="1" gridSize="10" guides="1" tooltips="1" connect="1" arrows="1" fold="1" page="1" pageScale="1" pageWidth="8027" pageHeight="11069" math="0" shadow="0">
      <root>
        <mxCell id="0" />
        <mxCell id="1" parent="0" />
        <mxCell id="6-WUZHfBbGJrAchaXmbB-2" value="" style="rounded=1;whiteSpace=wrap;html=1;" vertex="1" parent="1">
          <mxGeometry x="130" y="20" width="480" height="50" as="geometry" />
        </mxCell>
        <mxCell id="6-WUZHfBbGJrAchaXmbB-3" value="" style="rounded=1;whiteSpace=wrap;html=1;" vertex="1" parent="1">
          <mxGeometry x="80" y="110" width="120" height="60" as="geometry" />
        </mxCell>
        <mxCell id="6-WUZHfBbGJrAchaXmbB-4" value="" style="rounded=1;whiteSpace=wrap;html=1;" vertex="1" parent="1">
          <mxGeometry x="230" y="110" width="120" height="60" as="geometry" />
        </mxCell>
        <mxCell id="6-WUZHfBbGJrAchaXmbB-5" value="" style="rounded=1;whiteSpace=wrap;html=1;" vertex="1" parent="1">
          <mxGeometry x="380" y="110" width="120" height="60" as="geometry" />
        </mxCell>
        <mxCell id="6-WUZHfBbGJrAchaXmbB-6" value="" style="rounded=1;whiteSpace=wrap;html=1;" vertex="1" parent="1">
          <mxGeometry x="530" y="110" width="120" height="60" as="geometry" />
        </mxCell>
        <mxCell id="6-WUZHfBbGJrAchaXmbB-8" value="Capture Stack" style="rounded=1;whiteSpace=wrap;html=1;" vertex="1" parent="1">
          <mxGeometry x="80" y="550" width="150" height="60" as="geometry" />
        </mxCell>
        <mxCell id="6-WUZHfBbGJrAchaXmbB-9" value="" style="shape=flexArrow;endArrow=classic;startArrow=classic;html=1;rounded=0;exitX=0.443;exitY=1.027;exitDx=0;exitDy=0;exitPerimeter=0;entryX=0.355;entryY=-0.067;entryDx=0;entryDy=0;entryPerimeter=0;" edge="1" parent="1" source="6-WUZHfBbGJrAchaXmbB-3" target="6-WUZHfBbGJrAchaXmbB-8">
          <mxGeometry width="100" height="100" relative="1" as="geometry">
            <mxPoint x="60" y="204.47761194029852" as="sourcePoint" />
            <mxPoint x="200" y="240" as="targetPoint" />
          </mxGeometry>
        </mxCell>
        <mxCell id="6-WUZHfBbGJrAchaXmbB-10" value="" style="endArrow=classic;html=1;rounded=0;entryX=0;entryY=0.5;entryDx=0;entryDy=0;exitX=1;exitY=0.5;exitDx=0;exitDy=0;" edge="1" parent="1" source="6-WUZHfBbGJrAchaXmbB-3" target="6-WUZHfBbGJrAchaXmbB-4">
          <mxGeometry width="50" height="50" relative="1" as="geometry">
            <mxPoint x="200" y="180" as="sourcePoint" />
            <mxPoint x="250" y="130" as="targetPoint" />
          </mxGeometry>
        </mxCell>
        <mxCell id="6-WUZHfBbGJrAchaXmbB-11" value="" style="endArrow=classic;html=1;rounded=0;entryX=0;entryY=0.5;entryDx=0;entryDy=0;exitX=1;exitY=0.5;exitDx=0;exitDy=0;" edge="1" parent="1">
          <mxGeometry width="50" height="50" relative="1" as="geometry">
            <mxPoint x="350" y="139.8" as="sourcePoint" />
            <mxPoint x="380" y="139.8" as="targetPoint" />
          </mxGeometry>
        </mxCell>
        <mxCell id="6-WUZHfBbGJrAchaXmbB-12" value="" style="endArrow=classic;html=1;rounded=0;entryX=0;entryY=0.5;entryDx=0;entryDy=0;exitX=1;exitY=0.5;exitDx=0;exitDy=0;" edge="1" parent="1">
          <mxGeometry width="50" height="50" relative="1" as="geometry">
            <mxPoint x="500" y="139.66" as="sourcePoint" />
            <mxPoint x="530" y="139.66" as="targetPoint" />
          </mxGeometry>
        </mxCell>
        <mxCell id="6-WUZHfBbGJrAchaXmbB-13" value="" style="endArrow=classic;html=1;rounded=0;exitX=0.062;exitY=1.021;exitDx=0;exitDy=0;exitPerimeter=0;" edge="1" parent="1" source="6-WUZHfBbGJrAchaXmbB-2">
          <mxGeometry width="50" height="50" relative="1" as="geometry">
            <mxPoint x="170" y="140" as="sourcePoint" />
            <mxPoint x="160" y="110" as="targetPoint" />
          </mxGeometry>
        </mxCell>
        <mxCell id="6-WUZHfBbGJrAchaXmbB-14" value="" style="endArrow=classic;html=1;rounded=0;exitX=0.062;exitY=1.021;exitDx=0;exitDy=0;exitPerimeter=0;" edge="1" parent="1">
          <mxGeometry width="50" height="50" relative="1" as="geometry">
            <mxPoint x="589.76" y="71.05000000000001" as="sourcePoint" />
            <mxPoint x="590" y="110" as="targetPoint" />
          </mxGeometry>
        </mxCell>
        <mxCell id="6-WUZHfBbGJrAchaXmbB-15" value="" style="endArrow=classic;html=1;rounded=0;exitX=0.062;exitY=1.021;exitDx=0;exitDy=0;exitPerimeter=0;" edge="1" parent="1">
          <mxGeometry width="50" height="50" relative="1" as="geometry">
            <mxPoint x="439.76" y="71.05000000000001" as="sourcePoint" />
            <mxPoint x="440" y="110" as="targetPoint" />
          </mxGeometry>
        </mxCell>
        <mxCell id="6-WUZHfBbGJrAchaXmbB-16" value="" style="endArrow=classic;html=1;rounded=0;exitX=0.062;exitY=1.021;exitDx=0;exitDy=0;exitPerimeter=0;" edge="1" parent="1">
          <mxGeometry width="50" height="50" relative="1" as="geometry">
            <mxPoint x="289.76" y="71.05000000000001" as="sourcePoint" />
            <mxPoint x="290" y="110" as="targetPoint" />
          </mxGeometry>
        </mxCell>
      </root>
    </mxGraphModel>
  </diagram>
</mxfile>
